<?xml version="1.0" encoding="UTF-8"?>
<!DOCTYPE svg PUBLIC "-//W3C//DTD SVG 1.1//EN" "http://www.w3.org/Graphics/SVG/1.1/DTD/svg11.dtd">
<svg xmlns="http://www.w3.org/2000/svg" version="1.1" width="512px" height="512px" style="shape-rendering:geometricPrecision; text-rendering:geometricPrecision; image-rendering:optimizeQuality; fill-rule:evenodd; clip-rule:evenodd" xmlns:xlink="http://www.w3.org/1999/xlink">
<g><path style="opacity:1" fill="#60ba3a" d="M 487.5,41.5 C 431.92,45.5197 381.92,64.0197 337.5,97C 310.151,121.371 291.318,151.204 281,186.5C 278.094,206.157 280.427,225.157 288,243.5C 289.277,245.747 290.777,247.747 292.5,249.5C 289.403,256.031 286.07,262.364 282.5,268.5C 261.117,258.458 249.617,241.458 248,217.5C 245.941,200.652 247.941,184.318 254,168.5C 276.673,115.166 315.507,78.9992 370.5,60C 408.33,46.4673 447.33,39.3007 487.5,38.5C 487.5,39.5 487.5,40.5 487.5,41.5 Z"/></g>
<g><path style="opacity:0.996" fill="#81d034" d="M 487.5,41.5 C 478.495,104.346 458.995,163.68 429,219.5C 407.838,251.509 378.338,271.176 340.5,278.5C 334.215,276.401 327.882,274.068 321.5,271.5C 321.167,270.667 320.833,269.833 320.5,269C 324.18,247.465 330.18,226.632 338.5,206.5C 344.518,193.63 351.184,181.13 358.5,169C 357.833,168.333 357.167,168.333 356.5,169C 331.148,192.828 309.815,219.662 292.5,249.5C 290.777,247.747 289.277,245.747 288,243.5C 280.427,225.157 278.094,206.157 281,186.5C 291.318,151.204 310.151,121.371 337.5,97C 381.92,64.0197 431.92,45.5197 487.5,41.5 Z"/></g>
<g><path style="opacity:0.996" fill="#9ee32f" d="M 247.5,254.5 C 244.209,267.899 237.209,279.066 226.5,288C 223.14,290.546 219.474,292.379 215.5,293.5C 203.508,272.166 188.175,253.5 169.5,237.5C 160.071,229.131 149.738,222.298 138.5,217C 158.099,242.138 173.766,269.638 185.5,299.5C 112.234,296.744 63.4004,260.744 39,191.5C 31.1492,166.965 26.3158,141.965 24.5,116.5C 25.2737,101.763 26.7737,87.0966 29,72.5C 29.6853,66.2229 31.1853,60.2229 33.5,54.5C 89.7773,84.6262 141.777,120.793 189.5,163C 207.303,179.121 222.47,197.288 235,217.5C 241.469,229.074 245.636,241.407 247.5,254.5 Z"/></g>
<g><path style="opacity:1" fill="#82d133" d="M 24.5,116.5 C 26.3158,141.965 31.1492,166.965 39,191.5C 63.4004,260.744 112.234,296.744 185.5,299.5C 190.94,309.821 194.607,320.821 196.5,332.5C 125.765,334.572 75.2646,303.905 45,240.5C 28.8223,200.764 21.989,159.431 24.5,116.5 Z"/></g>
<g><path style="opacity:1" fill="#349b40" d="M 338.5,206.5 C 304.355,245.385 285.688,290.885 282.5,343C 281.875,356.876 288.542,363.709 302.5,363.5C 302.167,364.5 301.5,365.167 300.5,365.5C 292.075,364.939 283.742,363.773 275.5,362C 270.293,359.435 267.126,355.268 266,349.5C 266.437,321.48 271.937,294.48 282.5,268.5C 286.07,262.364 289.403,256.031 292.5,249.5C 309.815,219.662 331.148,192.828 356.5,169C 357.167,168.333 357.833,168.333 358.5,169C 351.184,181.13 344.518,193.63 338.5,206.5 Z"/></g>
<g><path style="opacity:0.995" fill="#5fb93b" d="M 338.5,206.5 C 330.18,226.632 324.18,247.465 320.5,269C 320.833,269.833 321.167,270.667 321.5,271.5C 327.882,274.068 334.215,276.401 340.5,278.5C 333.869,279.331 327.202,279.664 320.5,279.5C 318.43,297.452 319.764,315.118 324.5,332.5C 315.645,341.699 308.312,352.032 302.5,363.5C 288.542,363.709 281.875,356.876 282.5,343C 285.688,290.885 304.355,245.385 338.5,206.5 Z"/></g>
<g><path style="opacity:1" fill="#349b40" d="M 169.5,237.5 C 190.936,269.72 206.436,304.72 216,342.5C 223.646,377.406 220.146,411.073 205.5,443.5C 206.61,449.603 209.943,453.936 215.5,456.5C 205.014,460.417 196.514,457.75 190,448.5C 189.333,445.5 189.333,442.5 190,439.5C 205.519,404.686 207.686,369.019 196.5,332.5C 194.607,320.821 190.94,309.821 185.5,299.5C 173.766,269.638 158.099,242.138 138.5,217C 149.738,222.298 160.071,229.131 169.5,237.5 Z"/></g>
<g><path style="opacity:0.987" fill="#5fb93a" d="M 169.5,237.5 C 188.175,253.5 203.508,272.166 215.5,293.5C 219.866,302.232 224.199,310.899 228.5,319.5C 242.768,357.005 251.102,395.838 253.5,436C 253.435,442.468 250.768,447.468 245.5,451C 235.694,453.801 225.694,455.635 215.5,456.5C 209.943,453.936 206.61,449.603 205.5,443.5C 220.146,411.073 223.646,377.406 216,342.5C 206.436,304.72 190.936,269.72 169.5,237.5 Z"/></g>
<g><path style="opacity:1" fill="#83d133" d="M 247.5,254.5 C 253.385,279.744 247.052,301.411 228.5,319.5C 224.199,310.899 219.866,302.232 215.5,293.5C 219.474,292.379 223.14,290.546 226.5,288C 237.209,279.066 244.209,267.899 247.5,254.5 Z"/></g>
<g><path style="opacity:0.99" fill="#b3dbfd" d="M 395.5,311.5 C 348.624,321.88 323.291,351.047 319.5,399C 322.825,447.486 348.158,476.986 395.5,487.5C 351.632,490.738 320.132,472.738 301,433.5C 292.502,410.891 292.336,388.224 300.5,365.5C 301.5,365.167 302.167,364.5 302.5,363.5C 308.312,352.032 315.645,341.699 324.5,332.5C 345.094,315.64 368.76,308.64 395.5,311.5 Z"/></g>
<g><path style="opacity:0.995" fill="#cfe8fe" d="M 395.5,311.5 C 443.195,321.575 468.529,350.908 471.5,399.5C 468.52,448.12 443.187,477.453 395.5,487.5C 348.158,476.986 322.825,447.486 319.5,399C 323.291,351.047 348.624,321.88 395.5,311.5 Z"/></g>
<g><path style="opacity:1" fill="#11814c" d="M 388.5,351.5 C 396.658,350.823 400.158,354.49 399,362.5C 391.5,372 384,381.5 376.5,391C 387.5,391.333 398.5,391.667 409.5,392C 415.448,394.433 416.948,398.6 414,404.5C 403.333,417.833 392.667,431.167 382,444.5C 377.667,448.5 373.333,448.5 369,444.5C 367.578,441.97 367.245,439.303 368,436.5C 375.5,427 383,417.5 390.5,408C 379.167,407.667 367.833,407.333 356.5,407C 351.465,403.987 350.298,399.82 353,394.5C 364.727,379.952 376.561,365.619 388.5,351.5 Z"/></g>
</svg>
